# xmcd
#
# Track frame offsets:
#	150
#	23760
#	48966
#	73260
#	94287
#	105608
#	134633
#	169096
#	192306
#	211207
#	237099
#
# Disc length: 3535 seconds
# Revision: 0
# Processed by: cddbd v1.5.2PL0 Copyright (c) Steve Scherf et al.
# Submitted via: dBpowerAMP V12.0
#
DISCID=9b0dcd0b
DTITLE=Boogie Patrol - I Try and I Try and I Don't Know What To Do... The Plan Was Set Some Time Ago, And We Must Follow Through
DYEAR=2010
DGENRE=Blues
TTITLE0=Cool Under Fire
TTITLE1=Where's Ronnie
TTITLE2=Taking Time
TTITLE3=The Bird and The Boy
TTITLE4=Hey Barber
TTITLE5=Make My Day
TTITLE6=Heavy Heart
TTITLE7=The Hesitant Upon
TTITLE8=Shaking Goes To Show
TTITLE9=Bathe With Your Woman
TTITLE10=That Feeling We Once Had
EXTD=
EXTT0=
EXTT1=
EXTT2=
EXTT3=
EXTT4=
EXTT5=
EXTT6=
EXTT7=
EXTT8=
EXTT9=
EXTT10=
PLAYORDER=
